<?xml version="1.0" encoding="UTF-8"?>
<svg width="311px" height="466px" viewBox="0 0 311 466" version="1.1" xmlns="http://www.w3.org/2000/svg" xmlns:xlink="http://www.w3.org/1999/xlink">
    <!-- Generator: Sketch 44.1 (41455) - http://www.bohemiancoding.com/sketch -->
    <title>5-calcas-over</title>
    <desc>Created with Sketch.</desc>
    <defs></defs>
    <g id="Page-1" stroke="none" stroke-width="1" fill="none" fill-rule="evenodd">
        <g id="Artboard" transform="translate(-1344.000000, -516.000000)">
            <g id="5-calcas-over" transform="translate(1344.000000, 516.000000)">
                <rect id="Rectangle-Copy-2" fill="#CB2975" x="0" y="0" width="311" height="466"></rect>
                <g id="noun_942441_cc" transform="translate(124.000000, 193.000000)" fill-rule="nonzero" fill="#FFFFFF">
                    <g id="Group">
                        <path d="M63.4785804,34.2572662 L60.4554523,9.33985612 C60.4542991,9.33122302 60.4521851,9.32278177 60.4510319,9.31414868 L60.2942059,1.38743405 C60.2805606,0.696019185 59.7162945,0.141966427 59.0236465,0.139472422 L20.926466,0 C20.9249285,0 20.9231988,0 20.9218535,0 C20.5851389,0 20.2620697,0.13294964 20.0231791,0.369880096 C19.7829433,0.607961631 19.6474502,0.931414868 19.6464893,1.26906475 L19.6197751,9.48853717 L19.6197751,9.48853717 L19.5407855,31.8545803 L0.994192116,39.2548681 C0.662282241,39.3872422 0.401482183,39.6525659 0.274829833,39.9863789 C0.148177483,40.3198082 0.167588541,40.6910312 0.328450479,41.0098801 L19.5123416,79.0417266 C19.51484,79.0465228 19.5175307,79.0511271 19.5200291,79.0559233 C19.5263713,79.0682014 19.5332901,79.0806715 19.5402089,79.0925659 C19.5527012,79.1146283 19.56577,79.1364988 19.5794154,79.1577938 C19.5851811,79.1668106 19.5909467,79.176211 19.5970968,79.1852278 C19.6399549,79.2481535 19.688002,79.306283 19.739893,79.3594245 C19.7439289,79.3634532 19.7481571,79.3676739 19.7521931,79.3717026 C19.7771776,79.3964508 19.8029309,79.420048 19.8296451,79.442494 C19.8321436,79.4447962 19.834642,79.4469065 19.8373327,79.4492086 C19.8667375,79.4735731 19.8971033,79.4964029 19.9284301,79.5176978 C19.9338114,79.5215348 19.939577,79.5247962 19.9447661,79.5286331 C19.9695585,79.5451319 19.9949274,79.5604796 20.0206807,79.57506 C20.0306745,79.5806235 20.0406683,79.5867626 20.0508543,79.5919424 C20.0787217,79.6065228 20.1069734,79.6207194 20.1356095,79.6331894 C20.1471408,79.6383693 20.1586722,79.6429736 20.1702035,79.6477698 C20.1949958,79.657554 20.2199803,79.6669544 20.2453493,79.6755875 C20.2589946,79.68 20.27264,79.6846043 20.2864776,79.6886331 C20.3128075,79.6964988 20.3395217,79.7032134 20.3662359,79.7095444 C20.3748844,79.7114628 20.3831485,79.7135731 20.391797,79.7154916 C20.4279285,79.7229736 20.4642522,79.7285372 20.5009602,79.7327578 C20.5098009,79.7339089 20.5186416,79.7346763 20.5276744,79.7358273 C20.5655356,79.7396643 20.603589,79.7417746 20.6418345,79.7421583 C20.6422189,79.7421583 20.6426033,79.7421583 20.6431798,79.7421583 L20.6441408,79.7421583 C20.6468314,79.7421583 20.6495221,79.742542 20.6522127,79.742542 C20.6543268,79.742542 20.6564409,79.742542 20.6587471,79.742542 L59.2387056,79.9867626 C59.2415885,79.9867626 59.2442791,79.9867626 59.2469698,79.9867626 C59.9179005,79.9867626 60.4748633,79.4674341 60.5194511,78.7982734 L63.4845383,34.494964 C63.4903039,34.4159233 63.4881899,34.3361151 63.4785804,34.2572662 Z M57.8778175,8.21985612 L52.4334962,8.21985612 L52.4334962,2.66167866 L57.7680777,2.681247 L57.8778175,8.21985612 Z M29.4913551,8.21985612 L29.4913551,2.57784173 L31.0571164,2.58359712 L31.0571164,8.21985612 L29.4913551,8.21985612 L29.4913551,8.21985612 Z M33.6082292,2.59280576 L45.5517956,2.63654676 L45.5517956,8.21985612 L33.6082292,8.21985612 L33.6082292,2.59280576 Z M48.1027161,2.64594724 L49.8827678,2.65247002 L49.8827678,8.21985612 L48.1027161,8.21985612 L48.1027161,2.64594724 Z M26.9404346,2.56844125 L26.9404346,8.21985612 L22.1747316,8.21985612 L22.1931817,2.55117506 L26.9404346,2.56844125 Z M19.3949143,73.1468585 L5.17756343,44.9609592 L19.5144556,39.2759712 L19.3949143,73.1468585 Z M19.5309839,34.6006715 L19.5240651,36.5321823 L4.02577658,42.6776019 L3.23203727,41.1042686 L19.5309839,34.6006715 Z M58.0548233,77.4330935 L21.9314207,77.2042206 L22.0717184,37.42753 C22.0717184,37.425036 22.0717184,37.4227338 22.0717184,37.4202398 L22.0882466,32.7445564 C22.0882466,32.7428297 22.0882466,32.7409113 22.0882466,32.7391847 L22.1656987,10.7664269 L58.0584749,10.7664269 L60.9313115,34.4450839 L58.0548233,77.4330935 Z" id="Shape"></path>
                        <path d="M51.5730674,19.5082974 L29.6130106,19.2646523 C29.6082059,19.2646523 29.6034012,19.2646523 29.5985964,19.2646523 C28.9107531,19.2646523 28.3457183,19.8098801 28.324001,20.4976499 L27.7952899,37.2606235 C27.784143,37.6147722 27.9213657,37.9576019 28.1737095,38.2064269 L33.8244415,43.7791847 C34.0631398,44.0145803 34.3852481,44.1463789 34.7208095,44.1463789 C34.7240767,44.1463789 34.7271517,44.1463789 34.730419,44.1463789 L46.1952433,44.0602398 C46.530997,44.057554 46.8521443,43.9230695 47.0891129,43.6859472 L52.4421447,38.3244125 C52.6798821,38.0863309 52.8138376,37.7636451 52.814222,37.4271463 L52.8299814,24.5442686 C52.8299814,24.543693 52.8299814,24.5433094 52.8299814,24.5429257 C52.8299814,24.542542 52.8299814,24.5421583 52.8299814,24.5417746 L52.834594,20.7829257 C52.8351705,20.0846043 52.272442,19.5159712 51.5730674,19.5082974 Z M50.2819437,22.0404796 L50.2804062,23.2801918 L30.785746,23.3613429 L30.8341776,21.8248441 L50.2819437,22.0404796 Z M45.6519259,41.5178897 L35.2404878,41.5961631 L30.3621621,36.7854197 L30.7054111,25.9079137 L50.277139,25.8265707 L50.2636858,36.8989928 L45.6519259,41.5178897 Z" id="Shape"></path>
                    </g>
                </g>
            </g>
        </g>
    </g>
</svg>