<?xml version="1.0" encoding="UTF-8"?>
<svg width="311px" height="466px" viewBox="0 0 311 466" version="1.1" xmlns="http://www.w3.org/2000/svg" xmlns:xlink="http://www.w3.org/1999/xlink">
    <!-- Generator: Sketch 44.1 (41455) - http://www.bohemiancoding.com/sketch -->
    <title>7-bermudas-over</title>
    <desc>Created with Sketch.</desc>
    <defs></defs>
    <g id="Page-1" stroke="none" stroke-width="1" fill="none" fill-rule="evenodd">
        <g id="Artboard" transform="translate(-2006.000000, -516.000000)">
            <g id="7-bermudas-over" transform="translate(2006.000000, 516.000000)">
                <rect id="Rectangle-Copy-2" fill="#F17F38" x="0" y="0" width="311" height="466"></rect>
                <g id="noun_1012794_cc" transform="translate(126.000000, 193.000000)" fill-rule="nonzero" fill="#FFFFFF">
                    <path d="M6.12765957,77.693617 C10.2808511,78.6638298 17.7617021,79.3957447 25.6510638,79.6085106 L25.6510638,79.6085106 C26.0927363,79.6103027 26.4623804,79.2739266 26.5021277,78.8340426 L29.293617,48.8085106 L31.8468085,78.8340426 C31.8823804,79.2772953 32.2531968,79.6184463 32.6978723,79.6170213 L32.6978723,79.6170213 C40.6808511,79.412766 48.2808511,78.6723404 52.5276596,77.693617 C56.4340426,76.8 58.2468085,75.7106383 58.2468085,74.2893617 L58.2468085,24.0765957 C58.240128,18.4155988 56.9019647,12.8355455 54.3404255,7.78723404 L54.3404255,1.14042553 C54.3404255,0.670395958 53.9593913,0.289361702 53.4893617,0.289361702 L5.17446809,0.289361702 C4.70443851,0.289361702 4.32340426,0.670395958 4.32340426,1.14042553 L4.32340426,7.78723404 C1.76186505,12.8355455 0.423701789,18.4155988 0.417021277,24.0765957 L0.417021277,74.2893617 C0.408510638,75.7446809 2.22978723,76.8 6.12765957,77.693617 Z M24.9021277,77.8893617 C17.412766,77.6510638 10.4340426,76.9531915 6.5106383,76.0425532 C2.58723404,75.1319149 2.1106383,74.2638298 2.1106383,74.2638298 L2.1106383,31.7531915 C7.54839715,31.383917 11.9996341,27.2865144 12.8170213,21.8978723 L14.8595745,8.82553191 L23.8978723,8.82553191 L23.8978723,24.4425532 C23.8978723,24.9125828 24.2789066,25.293617 24.7489362,25.293617 C25.2189657,25.293617 25.6,24.9125828 25.6,24.4425532 L25.6,8.83404255 L28.5106383,8.83404255 L28.5106383,39.1489362 L24.9021277,77.8893617 Z M52.187234,76.0425532 C48.187234,76.9702128 41.0808511,77.6765957 33.4638298,77.906383 L30.2042553,39.2425532 L30.2042553,8.83404255 L33.1148936,8.83404255 L33.1148936,24.4425532 C33.1148936,24.9125828 33.4959279,25.293617 33.9659574,25.293617 C34.435987,25.293617 34.8170213,24.9125828 34.8170213,24.4425532 L34.8170213,8.83404255 L43.0723404,8.83404255 L45.106383,21.8978723 C45.9681587,27.5794851 50.849151,31.780754 56.5957447,31.787234 L56.5957447,74.2382979 C56.5957447,74.2382979 56.2297872,75.1148936 52.1957447,76.0340426 L52.187234,76.0425532 Z M56.587234,30.0851064 C51.6939812,30.0613701 47.5458012,26.4799998 46.8085106,21.6425532 L44.8085106,8.87659574 L53.0212766,8.87659574 C55.3624194,13.6021853 56.5854279,18.8028836 56.5957447,24.0765957 L56.587234,30.0851064 Z M6.01702128,2 L52.6893617,2 L52.6893617,7.10638298 L34.8170213,7.10638298 L34.8170213,4.55319149 C34.8170213,4.08316192 34.435987,3.70212766 33.9659574,3.70212766 C33.4959279,3.70212766 33.1148936,4.08316192 33.1148936,4.55319149 L33.1148936,7.10638298 L25.6,7.10638298 L25.6,4.55319149 C25.6,4.08316192 25.2189657,3.70212766 24.7489362,3.70212766 C24.2789066,3.70212766 23.8978723,4.08316192 23.8978723,4.55319149 L23.8978723,7.10638298 L6.02553191,7.10638298 L6.01702128,2 Z M5.68510638,8.80851064 L13.1319149,8.80851064 L11.1319149,21.5744681 C10.4405724,26.1326828 6.70577408,29.6173201 2.1106383,29.9914894 L2.1106383,24.0340426 C2.123905,18.7596956 3.34981754,13.559031 5.69361702,8.83404255 L5.68510638,8.80851064 Z" id="Shape"></path>
                </g>
            </g>
        </g>
    </g>
</svg>