<?xml version="1.0" encoding="UTF-8"?>
<svg width="311px" height="466px" viewBox="0 0 311 466" version="1.1" xmlns="http://www.w3.org/2000/svg" xmlns:xlink="http://www.w3.org/1999/xlink">
    <!-- Generator: Sketch 44.1 (41455) - http://www.bohemiancoding.com/sketch -->
    <title>8-acessorios-over</title>
    <desc>Created with Sketch.</desc>
    <defs></defs>
    <g id="Page-1" stroke="none" stroke-width="1" fill="none" fill-rule="evenodd">
        <g id="Artboard" transform="translate(-2337.000000, -516.000000)">
            <g id="8-acessorios-over" transform="translate(2337.000000, 516.000000)">
                <rect id="Rectangle-Copy-2" fill="#F6AB43" x="0" y="0" width="311" height="466"></rect>
                <g id="noun_1125144_cc" transform="translate(134.000000, 192.000000)" fill-rule="nonzero" fill="#FFFFFF">
                    <path d="M18.992,42.336 L23.474,42.336 C24.027,42.336 24.474,41.889 24.474,41.336 C24.474,40.783 24.027,40.336 23.474,40.336 L19.992,40.336 L19.992,34.521 C19.992,33.968 19.545,33.521 18.992,33.521 C18.439,33.521 17.992,33.968 17.992,34.521 L17.992,41.336 C17.992,41.889 18.439,42.336 18.992,42.336 Z" id="Shape"></path>
                    <path d="M3.953,63.375 L5.737,63.375 L5.737,80.336 C5.737,80.889 6.184,81.336 6.737,81.336 L31.163,81.336 C31.716,81.336 32.163,80.889 32.163,80.336 L32.163,63.375 L33.973,63.375 C36.081,63.375 37.797,61.66 37.797,59.552 L37.797,45.56 L41.56,45.56 C42.113,45.56 42.56,45.113 42.56,44.56 L42.56,38.114 C42.56,37.561 42.113,37.114 41.56,37.114 L37.797,37.114 L37.797,22.764 C37.797,20.656 36.081,18.941 33.973,18.941 L32.163,18.941 L32.163,1.979 C32.163,1.426 31.716,0.979 31.163,0.979 L6.737,0.979 C6.184,0.979 5.737,1.426 5.737,1.979 L5.737,18.94 L3.953,18.94 C1.845,18.94 0.13,20.655 0.13,22.763 L0.13,59.551 C0.13,61.66 1.845,63.375 3.953,63.375 Z M30.163,73.889 L7.737,73.889 L7.737,69.406 L30.163,69.406 L30.163,73.889 Z M7.737,79.336 L7.737,75.889 L30.163,75.889 L30.163,79.336 L7.737,79.336 Z M30.163,67.405 L7.737,67.405 L7.737,63.375 L30.163,63.375 L30.163,67.405 Z M40.56,39.113 L40.56,43.559 L37.797,43.559 L37.797,39.113 L40.56,39.113 Z M7.737,8.427 L30.163,8.427 L30.163,12.91 L7.737,12.91 L7.737,8.427 Z M30.163,2.979 L30.163,6.426 L7.737,6.426 L7.737,2.979 L30.163,2.979 Z M7.737,14.91 L30.163,14.91 L30.163,18.94 L7.737,18.94 L7.737,14.91 Z M2.13,22.764 C2.13,21.759 2.948,20.941 3.953,20.941 L33.973,20.941 C34.979,20.941 35.797,21.759 35.797,22.764 L35.797,59.552 C35.797,60.557 34.979,61.375 33.973,61.375 L3.953,61.375 C2.948,61.375 2.13,60.557 2.13,59.552 L2.13,22.764 Z" id="Shape"></path>
                    <path d="M5.622,59.303 L32.195,59.303 C32.82,59.303 33.328,58.795 33.328,58.17 L33.328,24.503 C33.328,23.878 32.82,23.37 32.195,23.37 L5.622,23.37 C4.997,23.37 4.488,23.878 4.488,24.503 L4.488,58.17 C4.488,58.795 4.997,59.303 5.622,59.303 Z M17.93,25.37 L17.93,27.966 C17.93,28.519 18.377,28.966 18.93,28.966 C19.483,28.966 19.93,28.519 19.93,27.966 L19.93,25.37 L31.328,25.37 L31.328,40.211 L28.6,40.211 C28.047,40.211 27.6,40.658 27.6,41.211 C27.6,41.764 28.047,42.211 28.6,42.211 L31.328,42.211 L31.328,57.303 L19.95,57.303 L19.95,54.74 C19.95,54.187 19.503,53.74 18.95,53.74 C18.397,53.74 17.95,54.187 17.95,54.74 L17.95,57.302 L6.488,57.302 L6.488,42.211 L9.233,42.211 C9.786,42.211 10.233,41.764 10.233,41.211 C10.233,40.658 9.786,40.211 9.233,40.211 L6.488,40.211 L6.488,25.37 L17.93,25.37 Z" id="Shape"></path>
                </g>
            </g>
        </g>
    </g>
</svg>