<?xml version="1.0" encoding="UTF-8"?>
<svg width="26px" height="26px" viewBox="0 0 26 26" version="1.1" xmlns="http://www.w3.org/2000/svg" xmlns:xlink="http://www.w3.org/1999/xlink">
    <!-- Generator: Sketch 44.1 (41455) - http://www.bohemiancoding.com/sketch -->
    <title>✈︎</title>
    <desc>Created with Sketch.</desc>
    <defs></defs>
    <g id="Page-1" stroke="none" stroke-width="1" fill="none" fill-rule="evenodd">
        <path d="M21.5828347,9.44875281 C24.5683186,9.44875281 26.7215335,9.57094446 28.0425441,9.81533141 C29.3635547,10.0597184 30.02405,10.4593181 30.02405,11.0141425 C30.02405,11.5821771 29.3833695,11.9883817 28.1019893,12.2327687 C26.820609,12.4771556 24.6475792,12.5993473 21.5828347,12.5993473 L18.6105758,16.5821742 L19.0663222,16.5821742 C19.5022557,16.5821742 19.8325033,16.6482237 20.0570751,16.7803248 C20.2816469,16.9124259 20.3939311,17.1039695 20.3939311,17.3549615 C20.3939311,17.6059535 20.2816469,17.7974972 20.0570751,17.9295983 C19.8325033,18.0616993 19.5022557,18.1277488 19.0663222,18.1277488 L17.4811174,18.1277488 L15.5788717,20.7235216 L16.014803,20.7235216 C16.4507365,20.7235216 16.7842867,20.7895712 17.0154635,20.9216722 C17.2466404,21.0537733 17.3622271,21.2453169 17.3622271,21.496309 C17.3622271,21.747301 17.2466404,21.9388446 17.0154635,22.0709457 C16.7842867,22.2030467 16.4507365,22.2690963 16.014803,22.2690963 L14.4295983,22.2690963 C13.6898323,23.5504765 12.9731949,24.4520527 12.2796643,24.9738519 C11.5861338,25.4956511 10.7770269,25.7565467 9.85231952,25.7565467 L9.43620327,25.7565467 C10.8496846,22.8239033 11.9758292,20.2479713 12.8146709,18.0286736 C13.6535126,15.8093758 14.0729272,14.356286 14.0729272,13.6693605 C14.0729272,12.9428047 12.8510107,12.5134827 10.4071412,12.3813816 C8.45204554,12.2757008 6.78099224,12.1303918 5.39393115,11.9454503 C5.12972903,12.1436019 4.74664171,12.5696214 4.2446577,13.2235216 C3.74267368,13.8774219 3.09538821,14.792208 2.30278187,15.9679074 C1.94610902,16.0603781 1.57953409,16.1396376 1.20304607,16.2056881 C0.826558062,16.2717386 0.440168266,16.3311832 0.0438650958,16.3840236 C0.426958161,15.4461061 0.747298418,14.5709497 1.00489548,13.7585282 C1.26249254,12.9461067 1.46394363,12.1700247 1.60925479,11.4302588 C1.42431331,11.4038385 1.2261647,11.3576039 1.01480301,11.2915533 C0.803441318,11.2255028 0.585477844,11.1330335 0.360906047,11.0141425 C0.532637421,10.9348819 0.720878603,10.8622274 0.925635241,10.7961769 C1.13039188,10.7301263 1.35826278,10.6706817 1.60925479,10.6178413 C1.45073352,9.85165519 1.239375,9.05575826 0.97517289,8.23012665 C0.710970776,7.40449505 0.393932995,6.54915354 0.0240500364,5.66407646 C0.644925003,5.74333709 1.36486496,5.86883121 2.18389152,6.04056259 C2.23673194,6.05377269 2.27636166,6.0669826 2.30278187,6.0801927 C3.09538821,7.26910222 3.74267368,8.19049327 4.2446577,8.8443935 C4.74664171,9.49829373 5.12312408,9.91110334 5.37411609,10.0828347 C6.68191655,9.93752355 8.28031536,9.81202943 10.1693605,9.70634858 C12.7717513,9.56103742 14.0729272,9.11850552 14.0729272,8.3787396 C14.0729272,7.70502421 13.6568151,6.27174924 12.8245784,4.0788717 C11.9923418,1.88599416 10.8628947,-0.709752672 9.43620327,-3.70844666 L9.85231952,-3.70844666 C10.7770269,-3.70844666 11.5861338,-3.44755099 12.2796643,-2.92575181 C12.9731949,-2.40395264 13.6898323,-1.50237645 14.4295983,-0.220996199 L16.014803,-0.220996199 C16.4507365,-0.220996199 16.7842867,-0.154946661 17.0154635,-0.0228456043 C17.2466404,0.109255453 17.3622271,0.300799112 17.3622271,0.55179112 C17.3622271,0.802783128 17.2466404,0.994326787 17.0154635,1.12642784 C16.7842867,1.2585289 16.4507365,1.32457844 16.014803,1.32457844 L15.5788717,1.32457844 L17.4811174,3.92035123 L19.0663222,3.92035123 C19.5022557,3.92035123 19.8325033,3.98640076 20.0570751,4.11850182 C20.2816469,4.25060288 20.3939311,4.44214654 20.3939311,4.69313854 C20.3939311,4.94413055 20.2816469,5.13567421 20.0570751,5.26777527 C19.8325033,5.39987632 19.5022557,5.46592586 19.0663222,5.46592586 L18.6105758,5.46592586 L21.5828347,9.44875281 Z" id="✈︎" fill="#444444" transform="translate(15.024050, 11.024050) rotate(-45.000000) translate(-15.024050, -11.024050) "></path>
    </g>
</svg>