<?xml version="1.0" encoding="UTF-8"?>
<svg width="42px" height="40px" viewBox="0 0 42 40" version="1.1" xmlns="http://www.w3.org/2000/svg" xmlns:xlink="http://www.w3.org/1999/xlink">
    <!-- Generator: Sketch 44.1 (41455) - http://www.bohemiancoding.com/sketch -->
    <title>icon-produtos-exclusivos</title>
    <desc>Created with Sketch.</desc>
    <defs></defs>
    <g id="Page-1" stroke="none" stroke-width="1" fill="none" fill-rule="evenodd">
        <g id="icon-produtos-exclusivos" fill-rule="nonzero" fill="#444444">
            <path d="M10.4843758,18.0006864 C10.420411,18.0037667 10.3620511,18.0166503 10.3125012,18.0312451 L0.312523791,21.9427634 C0.127599207,22.0159161 -0.0020480013,22.2060843 2.44940357e-05,22.4011444 L2.44940357e-05,35.6025062 C0.00102449179,35.7950262 0.130021702,35.9810434 0.312523791,36.0532353 L10.3125012,39.964778 C10.4312834,40.0117407 10.5687181,40.0117407 10.6875004,39.964778 L20.6874779,36.0532353 C20.86998,35.9810434 20.9989497,35.7950262 20.9999772,35.6025062 L20.9999772,22.4011444 C21.0019772,22.2060843 20.8724025,22.0159161 20.6874779,21.9427634 L10.6875004,18.0312451 C10.6179155,18.004351 10.5483407,17.9976134 10.4843758,18.0006864 Z M10.5000008,19.0167644 L19.1484188,22.4011444 L15.976551,23.6387732 L7.81250709,20.0710408 L10.5000008,19.0167644 Z M5.59376208,20.9343251 L14.0234304,24.4027416 L10.5000008,25.7778848 L1.85158275,22.4011444 L5.59376208,20.9343251 Z M1.00002217,23.1192747 L10.0000022,26.6411568 L10.0000022,38.7806148 L1.00002217,35.2663601 L1.00002217,23.1192747 Z M19.9999794,23.1192747 L19.9999794,35.2663601 L10.9999997,38.7806148 L10.9999997,26.6411568 L14.4999918,25.2736656 L14.4999918,29.0018192 L16.4999873,28.2684218 L16.4999873,24.4867782 L19.9999794,23.1192747 Z" id="Shape"></path>
            <path d="M31.4843758,18.0006864 C31.420411,18.0037667 31.3620511,18.0166503 31.3125012,18.0312451 L21.3125238,21.9427634 C21.1275992,22.0159161 20.997952,22.2060843 21.0000245,22.4011444 L21.0000245,35.6025062 C21.0010245,35.7950262 21.1300217,35.9810434 21.3125238,36.0532353 L31.3125012,39.964778 C31.4312834,40.0117407 31.5687181,40.0117407 31.6875004,39.964778 L41.6874779,36.0532353 C41.86998,35.9810434 41.9989497,35.7950262 41.9999772,35.6025062 L41.9999772,22.4011444 C42.0019772,22.2060843 41.8724025,22.0159161 41.6874779,21.9427634 L31.6875004,18.0312451 C31.6179155,18.004351 31.5483407,17.9976134 31.4843758,18.0006864 Z M31.5000008,19.0167644 L40.1484188,22.4011444 L36.976551,23.6387732 L28.8125071,20.0710408 L31.5000008,19.0167644 Z M26.5937621,20.9343251 L35.0234304,24.4027416 L31.5000008,25.7778848 L22.8515828,22.4011444 L26.5937621,20.9343251 Z M22.0000222,23.1192747 L31.0000022,26.6411568 L31.0000022,38.7806148 L22.0000222,35.2663601 L22.0000222,23.1192747 Z M40.9999794,23.1192747 L40.9999794,35.2663601 L31.9999997,38.7806148 L31.9999997,26.6411568 L35.4999918,25.2736656 L35.4999918,29.0018192 L37.4999873,28.2684218 L37.4999873,24.4867782 L40.9999794,23.1192747 Z" id="Shape"></path>
            <path d="M20.4843758,0.000686413202 C20.420411,0.0037667338 20.3620511,0.016650297 20.3125012,0.0312451493 L10.3125238,3.94276337 C10.1275992,4.0159161 9.997952,4.20608434 10.0000245,4.40114441 L10.0000245,17.6025062 C10.0010245,17.7950262 10.1300217,17.9810434 10.3125238,18.0532353 L20.3125012,21.964778 C20.4312834,22.0117407 20.5687181,22.0117407 20.6875004,21.964778 L30.6874779,18.0532353 C30.86998,17.9810434 30.9989497,17.7950262 30.9999772,17.6025062 L30.9999772,4.40114441 C31.0019772,4.20608434 30.8724025,4.0159161 30.6874779,3.94276337 L20.6875004,0.0312451493 C20.6179155,0.00435101684 20.5483407,-0.0023865733 20.4843758,0.000686413202 Z M20.5000008,1.01676439 L29.1484188,4.40114441 L25.976551,5.63877323 L17.8125071,2.07104079 L20.5000008,1.01676439 Z M15.5937621,2.93432508 L24.0234304,6.40274163 L20.5000008,7.77788476 L11.8515828,4.40114441 L15.5937621,2.93432508 Z M11.0000222,5.11927471 L20.0000022,8.64115683 L20.0000022,20.7806148 L11.0000222,17.2663601 L11.0000222,5.11927471 Z M29.9999794,5.11927471 L29.9999794,17.2663601 L20.9999997,20.7806148 L20.9999997,8.64115683 L24.4999918,7.27366561 L24.4999918,11.0018192 L26.4999873,10.2684218 L26.4999873,6.48677816 L29.9999794,5.11927471 Z" id="Shape"></path>
        </g>
    </g>
</svg>