<?xml version="1.0" encoding="UTF-8"?>
<svg width="49px" height="29px" viewBox="0 0 49 29" version="1.1" xmlns="http://www.w3.org/2000/svg" xmlns:xlink="http://www.w3.org/1999/xlink">
    <!-- Generator: Sketch 44.1 (41455) - http://www.bohemiancoding.com/sketch -->
    <title>icon-entrega-verde</title>
    <desc>Created with Sketch.</desc>
    <defs></defs>
    <g id="Page-1" stroke="none" stroke-width="1" fill="none" fill-rule="evenodd">
        <g id="icon-entrega-verde" fill-rule="nonzero" fill="#444444">
            <path d="M9.5,29 C4.25329488,29 0,24.7467051 0,19.5 C0,14.2532949 4.25329488,10 9.5,10 C14.7467051,10 19,14.2532949 19,19.5 C19,24.7467051 14.7467051,29 9.5,29 Z M9.5,27.0344828 C13.6611799,27.0344828 17.0344828,23.6611799 17.0344828,19.5 C17.0344828,15.3388201 13.6611799,11.9655172 9.5,11.9655172 C5.33882007,11.9655172 1.96551724,15.3388201 1.96551724,19.5 C1.96551724,23.6611799 5.33882007,27.0344828 9.5,27.0344828 Z" id="Oval"></path>
            <path d="M22,22 C20.3431458,22 19,20.6568542 19,19 C19,17.3431458 20.3431458,16 22,16 C23.6568542,16 25,17.3431458 25,19 C25,20.6568542 23.6568542,22 22,22 Z M22,20 C22.5522847,20 23,19.5522847 23,19 C23,18.4477153 22.5522847,18 22,18 C21.4477153,18 21,18.4477153 21,19 C21,19.5522847 21.4477153,20 22,20 Z" id="Oval-Copy-2"></path>
            <path d="M39.5,29 C34.2532949,29 30,24.7467051 30,19.5 C30,14.2532949 34.2532949,10 39.5,10 C44.7467051,10 49,14.2532949 49,19.5 C49,24.7467051 44.7467051,29 39.5,29 Z M39.5,27.0344828 C43.6611799,27.0344828 47.0344828,23.6611799 47.0344828,19.5 C47.0344828,15.3388201 43.6611799,11.9655172 39.5,11.9655172 C35.3388201,11.9655172 31.9655172,15.3388201 31.9655172,19.5 C31.9655172,23.6611799 35.3388201,27.0344828 39.5,27.0344828 Z" id="Oval-Copy"></path>
            <path d="M11.9504447,19.9334469 L19.4809814,9.06655305 L33.6216648,9.06655305 L23.335331,19.9537833 L24.7696271,21.3962833 L36.7136503,8.75452654 C37.3321588,8.09988663 36.8825893,7 35.9965022,7 L18.9658797,7 C18.642605,7 18.3392101,7.16099728 18.1511915,7.43231633 L9.1885756,20.3657633 C8.7146842,21.0496093 9.18846627,22 10.0032638,22 L21.9609165,22 L21.9609165,19.9334469 L11.9504447,19.9334469 Z" id="Path-2"></path>
            <path d="M22.7583414,15.7224186 L22.0675616,17.5456565 C21.8531472,18.1115798 22.1660182,18.7341983 22.7663785,18.9363138 C23.3667388,19.1384293 24.0272442,18.8435047 24.2416586,18.2775814 L24.9324384,16.4543435 C25.1468528,15.8884202 24.8339818,15.2658017 24.2336215,15.0636862 C23.6332612,14.8615707 22.9727558,15.1564953 22.7583414,15.7224186 Z" id="Line"></path>
            <path d="M19.9049381,21.6345279 L19.0631433,23.7225945 C18.8627508,24.2196666 19.1551611,24.7665362 19.71626,24.944062 C20.2773588,25.1215877 20.8946694,24.8625442 21.0950619,24.3654721 L21.9368567,22.2774055 C22.1372492,21.7803334 21.8448389,21.2334638 21.28374,21.055938 C20.7226412,20.8784123 20.1053306,21.1374558 19.9049381,21.6345279 Z" id="Line-Copy-15"></path>
            <polygon id="Line" points="15 0.590555807 21.0093201 18 23 17.4094442 16.9906799 0"></polygon>
            <path d="M40.1723729,3.96541002 C41.5468711,3.98095503 42.0247386,4.3869372 42.0247386,5.39548254 C42.0247386,6.42324742 41.6010121,6.81191405 40.3663682,6.82803887 C39.8209618,6.83516204 39.3846259,7.28087064 39.3917848,7.82355688 C39.3989437,8.36624313 39.8468864,8.80040278 40.3922927,8.79327961 C42.6683672,8.7635534 44,7.54210222 44,5.39548254 C44,3.2296433 42.5845365,2.02710712 40.1835524,2.00006296 L33.9883439,2 C33.3192269,2 32.84377,2.64810476 33.0477006,3.28220965 L38.5260072,20.3165353 C38.6922481,20.8334473 39.2481534,21.1183945 39.7676564,20.9529826 C40.2871593,20.7875708 40.5735348,20.234438 40.4072938,19.717526 L35.341351,3.96541002 L40.1723729,3.96541002 Z" id="Line-Copy-16"></path>
            <path d="M20.9285714,0 L13.0714286,8.8817842e-16 C12.4796949,9.55068519e-16 12,0.44771525 12,1 C12,1.55228475 12.4796949,2 13.0714286,2 L20.9285714,2 C21.5203051,2 22,1.55228475 22,1 C22,0.44771525 21.5203051,-6.68900995e-17 20.9285714,0 Z" id="Line"></path>
        </g>
    </g>
</svg>