<?xml version="1.0" encoding="UTF-8"?>
<svg width="311px" height="466px" viewBox="0 0 311 466" version="1.1" xmlns="http://www.w3.org/2000/svg" xmlns:xlink="http://www.w3.org/1999/xlink">
    <!-- Generator: Sketch 44.1 (41455) - http://www.bohemiancoding.com/sketch -->
    <title>1-calcados-over</title>
    <desc>Created with Sketch.</desc>
    <defs></defs>
    <g id="Page-1" stroke="none" stroke-width="1" fill="none" fill-rule="evenodd">
        <g id="Artboard" transform="translate(-20.000000, -516.000000)">
            <g id="1-calcados-over" transform="translate(20.000000, 516.000000)">
                <rect id="Rectangle" fill="#8A21BB" x="0" y="0" width="311" height="466"></rect>
                <g id="noun_942444_cc" transform="translate(115.000000, 208.000000)" fill-rule="nonzero" fill="#FFFFFF">
                    <g id="Group">
                        <path d="M77.9072376,33.6649805 C72.8143408,30.9951362 63.3456849,28.2696498 61.5326245,27.7595331 C60.4939645,26.8357977 56.0036801,22.8651751 51.1889716,18.9402724 C48.5080719,16.7548638 46.1620429,14.9377432 44.191897,13.5194553 C43.8084692,12.5558366 42.6918468,9.87879377 41.108611,7.16614786 C38.3334987,2.41108949 35.543297,0 32.814614,0 C30.9262995,0 29.3920078,0.60077821 28.2542988,1.78560311 C26.2412059,3.88210117 26.3265196,7.03891051 26.3315494,7.17237354 C26.3561182,7.88501946 26.9511858,8.44494163 27.6592312,8.42042802 C28.3680504,8.39552529 28.922299,7.80019455 28.8977302,7.08774319 C28.8969564,7.06575875 28.8543963,4.86673152 30.1106932,3.56984436 C30.7541246,2.90525292 31.6386009,2.58229572 32.8148074,2.58229572 C34.5137294,2.58229572 36.6674641,4.66478599 38.8790419,8.4463035 C39.3642271,9.27607004 39.8058849,10.1099222 40.1931818,10.8881323 C38.3580675,9.84455253 37.4720435,9.67178988 36.8951607,9.67178988 C35.1660597,9.67178988 33.1562555,10.1461089 31.0286372,10.6480545 C28.8015831,11.1735409 26.4986945,11.7167315 24.4811522,11.7167315 C23.7860683,11.7167315 23.1552115,11.65 22.6057992,11.5180934 C20.9370562,11.1180934 19.8007015,10.5478599 18.5977982,9.94396887 C16.7915087,9.03735409 14.9238939,8.09980545 11.4540847,7.86361868 C11.3509732,7.85661479 11.2451533,7.85291829 11.1393334,7.85291829 C8.48841928,7.85291829 5.1041172,10.0287938 3.76424774,14.1873541 C2.49653701,18.1219844 0.662970347,26.2249027 0.662970347,30.5838521 C0.662970347,33.3980545 1.59871227,35.6391051 3.5235897,37.4354086 C5.76109044,39.5231518 9.34349046,41.0050584 14.4756586,41.9655642 C16.3955062,42.3247082 18.2447427,42.5070039 19.9721026,42.5070039 C24.7189084,42.5070039 27.6480108,41.1400778 29.1014384,40.1994163 C31.0961531,42.2470817 34.8576924,44.3947471 39.5305984,46.1157588 C40.5446896,46.4891051 41.7001964,46.8784047 42.9889937,47.2581712 C34.517792,47.2589494 25.9047876,47.2575875 17.2252348,47.2542802 C17.2250413,47.2542802 17.2248479,47.2542802 17.2246544,47.2542802 C16.5158353,47.2542802 15.9410804,47.8321012 15.9406935,48.5449416 C15.9405,49.2579767 16.5150614,49.8363813 17.2242675,49.8365759 C24.4875362,49.8394942 31.7024411,49.8406615 38.8281632,49.8406615 C46.8882731,49.8406615 54.8338576,49.8389105 62.5989485,49.8354086 C62.691807,49.8354086 62.7825374,49.8247082 62.8701725,49.8058366 C67.5539119,49.6215953 71.6659918,48.57393 74.8338177,46.7476654 C77.8758979,44.994358 79.9773997,42.5233463 80.5997445,39.9682879 C81.2514945,37.292607 80.2199923,34.8774319 77.9072376,33.6649805 Z M78.105529,39.3538911 C77.6499424,41.2252918 75.9918394,43.1036965 73.5570146,44.5071984 C70.4406477,46.3035019 66.2227479,47.2531128 61.3587084,47.2531128 C52.0426886,47.2531128 44.826236,45.3157588 40.4131402,43.6904669 C34.5340422,41.5254864 31.320174,39.1101167 30.3548334,37.6996109 C30.1341012,37.3776265 29.7899448,37.1632296 29.4022609,37.1342412 C29.3685997,37.1317121 29.3349386,37.1303502 29.3016643,37.1303502 C28.9532518,37.1303502 28.625539,37.2671206 28.3835268,37.5243191 C28.259909,37.6412451 25.759116,39.9243191 19.9717157,39.9243191 C18.4016348,39.9243191 16.7102575,39.7568093 14.9449805,39.4262646 C10.3697693,38.5700389 7.11430829,37.2632296 5.26971469,35.5418288 C3.8783862,34.2435798 3.23011844,32.6680934 3.23011844,30.583463 C3.23011844,30.4719844 3.23185953,30.3570039 3.23437445,30.2394942 C4.93542442,31.0476654 8.01890395,32.3892996 11.7226003,33.4375486 C15.0169458,34.3702335 18.1180297,34.8729572 20.9393777,34.9321012 C24.5455727,35.0075875 27.7114641,34.3550584 30.3496101,32.9933852 C31.4724231,32.4138132 31.7540936,32.4896887 31.7562216,32.4906615 C31.8895121,32.5400778 32.2489515,33.0431907 32.4869012,33.37607 C33.6518873,35.0070039 35.6023008,37.7367704 41.8671481,39.8153696 C42.0004386,39.8597276 42.136244,39.8807393 42.2695345,39.8807393 C42.8083068,39.8805447 43.3103225,39.5363813 43.4884946,38.9935798 C43.710581,38.316537 43.344951,37.5863813 42.6713406,37.3628405 C37.1998523,35.5474708 35.6183576,33.3340467 34.5721528,31.8692607 C34.0115202,31.0848249 33.4818403,30.3435798 32.5590599,30.0379377 C31.427735,29.6632296 30.2145785,30.1603113 29.1770793,30.6961089 C24.0197619,33.3583658 17.2432261,32.3122568 12.4666283,30.9657588 C8.15625701,29.7507782 4.64756335,28.0750973 3.46149064,27.4776265 C3.9747268,23.3764591 5.2391488,17.9854086 6.20642389,14.9828794 C7.21722636,11.8461089 9.69925424,10.4350195 11.138753,10.4350195 C11.1871168,10.4350195 11.2345133,10.4365759 11.2799752,10.4396887 C14.2365482,10.640856 15.7259584,11.3885214 17.4504164,12.2540856 C18.7301214,12.8964981 20.0537406,13.5608949 22.0093774,14.0297665 C22.7640454,14.2107004 23.5723005,14.2986381 24.4801849,14.2986381 C26.7950676,14.2986381 29.244982,13.720428 31.6140321,13.1614786 C33.593077,12.6947471 35.4624328,12.2536965 36.8941934,12.2536965 C36.9922751,12.2536965 37.9576156,12.3258755 41.5821888,14.8309339 C41.850511,15.0163424 42.127732,15.211284 42.413852,15.4153696 L42.413852,15.4153696 C44.3940575,16.8280156 46.7946409,18.6822957 49.5649167,20.9404669 C54.9876543,25.3608949 59.9987197,29.842607 60.0484376,29.8873541 C60.1962372,30.0196498 60.3722813,30.1155642 60.562641,30.1680934 C60.6707824,30.1978599 71.4321047,33.1822957 76.7196172,35.9540856 C77.9675955,36.6087549 78.4729001,37.8476654 78.105529,39.3538911 Z" id="Shape"></path>
                        <path d="M9.32221041,47.2533074 C9.32104968,47.2533074 9.31988895,47.2533074 9.31872822,47.2533074 C6.65988245,47.2599222 4.09621655,47.2599222 1.48070471,47.2533074 C1.47954398,47.2533074 1.47838325,47.2533074 1.47722252,47.2533074 C0.769950972,47.2533074 0.195196113,47.8291829 0.193261563,48.5410506 C0.191327013,49.2540856 0.764921141,49.8336576 1.47374033,49.8354086 C2.78362425,49.8389105 4.08093361,49.8404669 5.38327279,49.8404669 C6.68561197,49.8404669 7.99336789,49.838716 9.32491878,49.8354086 C10.0341249,49.8336576 10.6073321,49.2540856 10.605591,48.5410506 C10.6040434,47.8291829 10.0296754,47.2533074 9.32221041,47.2533074 Z" id="Shape"></path>
                    </g>
                </g>
            </g>
        </g>
    </g>
</svg>