<?xml version="1.0" encoding="UTF-8"?>
<svg width="311px" height="466px" viewBox="0 0 311 466" version="1.1" xmlns="http://www.w3.org/2000/svg" xmlns:xlink="http://www.w3.org/1999/xlink">
    <!-- Generator: Sketch 44.1 (41455) - http://www.bohemiancoding.com/sketch -->
    <title>2-camisetas-over</title>
    <desc>Created with Sketch.</desc>
    <defs></defs>
    <g id="Page-1" stroke="none" stroke-width="1" fill="none" fill-rule="evenodd">
        <g id="Artboard" transform="translate(-351.000000, -516.000000)">
            <g id="2-camisetas-over" transform="translate(351.000000, 516.000000)">
                <rect id="Rectangle-Copy" fill="#7D25C5" x="0" y="0" width="311" height="466"></rect>
                <g id="noun_984905_cc" transform="translate(111.000000, 194.000000)" fill-rule="nonzero" fill="#FFFFFF">
                    <path d="M70.522,79 L19.478,79 C18.659,79 17.995,78.336 17.995,77.519 L17.995,44.245 L16.915,45.297 C16.504,45.697 15.896,45.824 15.358,45.623 C13.116,44.785 3.36,34.948 0.424,31.953 C0.002,31.523 -0.117,30.881 0.123,30.329 C1.631,26.854 12.787,13.574 15.008,10.947 C20.974,3.892 33.7,1.146 34.239,1.032 C34.64,0.947 35.061,1.033 35.398,1.269 C37.465,2.719 41.055,3.584 45,3.584 C48.945,3.584 52.534,2.719 54.603,1.269 C54.94,1.033 55.36,0.947 55.762,1.032 C56.3,1.146 69.027,3.892 74.992,10.947 C77.213,13.574 88.37,26.855 89.878,30.329 C90.117,30.881 89.998,31.523 89.576,31.953 C86.639,34.948 76.884,44.785 74.642,45.623 C74.105,45.825 73.497,45.697 73.085,45.297 L72.005,44.245 L72.005,77.518 C72.006,78.336 71.342,79 70.522,79 Z M20.961,76.037 L69.039,76.037 L69.039,40.731 C69.039,40.135 69.396,39.598 69.946,39.366 C70.496,39.136 71.132,39.255 71.558,39.672 L74.328,42.368 C76.443,40.75 81.804,35.612 86.695,30.655 C84.803,27.541 78.563,19.763 72.724,12.857 C68.091,7.379 58.237,4.679 55.734,4.068 C53.134,5.649 49.273,6.547 45,6.547 C40.727,6.547 36.866,5.649 34.266,4.068 C31.764,4.679 21.909,7.38 17.276,12.857 C11.437,19.762 5.197,27.541 3.305,30.655 C8.192,35.606 13.545,40.738 15.674,42.366 L18.442,39.672 C18.869,39.255 19.505,39.137 20.054,39.366 C20.604,39.598 20.961,40.136 20.961,40.731 L20.961,76.037 Z" id="Shape"></path>
                    <path d="M45,15.399 C40.832,15.399 37.66,14.166 35.571,11.735 C32.257,7.877 33.044,2.483 33.079,2.256 C33.157,1.749 33.492,1.318 33.964,1.118 C34.436,0.917 34.979,0.973 35.399,1.268 C37.466,2.718 41.056,3.583 45.001,3.583 C48.946,3.583 52.535,2.718 54.604,1.268 C55.024,0.973 55.566,0.916 56.038,1.118 C56.511,1.318 56.846,1.749 56.923,2.256 C56.959,2.483 57.746,7.876 54.431,11.735 C52.34,14.166 49.168,15.399 45,15.399 Z M35.983,4.938 C36.105,6.404 36.539,8.32 37.836,9.822 C39.337,11.557 41.747,12.437 45,12.437 C48.254,12.437 50.664,11.557 52.164,9.822 C53.462,8.32 53.895,6.404 54.017,4.938 C51.563,5.974 48.413,6.547 45,6.547 C41.588,6.548 38.438,5.975 35.983,4.938 Z" id="Shape"></path>
                    <path d="M74.122,45.717 C73.741,45.717 73.368,45.571 73.086,45.297 L69.487,41.792 C69.2,41.513 69.039,41.131 69.039,40.731 L69.039,18.036 C69.039,17.785 69.089,11.852 73.412,10.49 C73.982,10.31 74.606,10.49 74.992,10.947 C77.213,13.574 88.37,26.855 89.878,30.329 C90.117,30.881 89.998,31.523 89.576,31.953 C86.639,34.948 76.884,44.785 74.642,45.623 C74.473,45.687 74.297,45.717 74.122,45.717 Z M72.006,40.107 L74.326,42.366 C76.455,40.738 81.808,35.606 86.695,30.655 C84.887,27.677 79.106,20.442 73.501,13.778 C72.08,15.045 72.006,18.002 72.006,18.036 L72.006,40.107 L72.006,40.107 Z" id="Shape"></path>
                    <path d="M15.878,45.717 C15.703,45.717 15.527,45.687 15.357,45.623 C13.116,44.785 3.36,34.948 0.424,31.953 C0.002,31.523 -0.117,30.881 0.123,30.329 C1.631,26.854 12.787,13.574 15.008,10.947 C15.394,10.49 16.018,10.311 16.589,10.49 C20.911,11.852 20.961,17.785 20.961,18.036 L20.961,40.731 C20.961,41.13 20.8,41.512 20.513,41.792 L16.914,45.297 C16.632,45.57 16.259,45.717 15.878,45.717 Z M3.305,30.655 C8.192,35.606 13.545,40.738 15.674,42.366 L17.994,40.107 L17.994,18.036 C17.993,18.005 17.931,15.045 16.5,13.777 C10.895,20.44 5.113,27.678 3.305,30.655 Z" id="Shape"></path>
                </g>
            </g>
        </g>
    </g>
</svg>