<?xml version="1.0" encoding="UTF-8"?>
<svg width="311px" height="466px" viewBox="0 0 311 466" version="1.1" xmlns="http://www.w3.org/2000/svg" xmlns:xlink="http://www.w3.org/1999/xlink">
    <!-- Generator: Sketch 44.1 (41455) - http://www.bohemiancoding.com/sketch -->
    <title>3-polos-over</title>
    <desc>Created with Sketch.</desc>
    <defs></defs>
    <g id="Page-1" stroke="none" stroke-width="1" fill="none" fill-rule="evenodd">
        <g id="Artboard" transform="translate(-682.000000, -516.000000)">
            <g id="3-polos-over" transform="translate(682.000000, 516.000000)">
                <rect id="Rectangle-Copy-2" fill="#A21DA3" x="0" y="0" width="311" height="466"></rect>
                <g id="noun_408637_cc" transform="translate(109.000000, 193.000000)" fill-rule="nonzero" fill="#FFFFFF">
                    <g id="Group">
                        <path d="M92.2162162,14.7027027 C88.1081081,11.4594595 75.2432432,6.37837838 74.5945946,6.05405405 L57.0810811,0.540540541 C56.5405405,0.324324324 56,0.324324324 55.4594595,0.324324324 C55.3513514,0.324324324 55.2432432,0.324324324 55.027027,0.324324324 C54.7027027,0.324324324 54.3783784,0.432432432 54.0540541,0.540540541 C51.6756757,1.51351351 46.4864865,1.51351351 46.4864865,1.51351351 C45.0810811,1.51351351 40.8648649,1.2972973 38.9189189,0.540540541 C38.5945946,0.432432432 38.2702703,0.324324324 37.9459459,0.324324324 C37.8378378,0.324324324 37.6216216,0.216216216 37.5135135,0.216216216 C36.972973,0.216216216 36.4324324,0.216216216 35.8918919,0.432432432 L30.9189189,2.16216216 L30.9189189,2.16216216 L30.9189189,2.16216216 L18.3783784,6.16216216 C17.8378378,6.37837838 4.97297297,11.4594595 0.864864865,14.7027027 C0.540540541,15.027027 0.324324324,15.4594595 0.540540541,15.8918919 L5.83783784,31.5675676 C6.05405405,32.1081081 6.48648649,32.3243243 7.02702703,32.3243243 C11.1351351,31.6756757 17.0810811,31.6756757 17.7297297,33.4054054 L17.9459459,78.4864865 C17.9459459,79.1351351 18.3783784,79.5675676 19.027027,79.5675676 L74.0540541,79.5675676 C74.7027027,79.5675676 75.1351351,79.1351351 75.1351351,78.4864865 L75.3513514,33.4054054 C76,31.6756757 81.9459459,31.6756757 86.0540541,32.3243243 C86.5945946,32.4324324 87.027027,32.1081081 87.2432432,31.5675676 L92.5405405,15.8918919 C92.6486486,15.4594595 92.5405405,15.027027 92.2162162,14.7027027 Z M55.8918919,2.81081081 L60.5405405,4.10810811 C59.7837838,6.7027027 58.0540541,11.2432432 55.4594595,12.8648649 L48.8648649,10.5945946 C50.9189189,9.18918919 53.8378378,6.7027027 55.8918919,2.81081081 Z M53.0810811,3.24324324 C50.7027027,6.81081081 47.6756757,8.75675676 46.4864865,9.40540541 C45.2972973,8.75675676 42.2702703,6.81081081 39.8918919,3.24324324 C42.7027027,3.89189189 46.3783784,3.89189189 46.4864865,3.89189189 C46.7027027,3.89189189 50.2702703,3.89189189 53.0810811,3.24324324 Z M36.972973,2.81081081 C39.1351351,6.7027027 41.9459459,9.18918919 43.8918919,10.4864865 L37.2972973,12.7567568 C34.8108108,11.1351351 33.0810811,6.59459459 32.4324324,4 L36.972973,2.81081081 Z M2.7027027,16 C3.35135135,15.5675676 4.10810811,15.1351351 4.86486486,14.7027027 C5.72972973,16.972973 7.89189189,22.7027027 10.0540541,29.9459459 C8.97297297,30.0540541 8.10810811,30.0540541 7.35135135,30.1621622 L2.7027027,16 Z M12.4324324,29.8378378 C10.1621622,22.0540541 7.78378378,15.8918919 6.91891892,13.6216216 C10.8108108,11.6756757 15.6756757,9.62162162 17.9459459,8.64864865 C18.4864865,12.3243243 18.1621622,24.1081081 17.8378378,30.7027027 C16.3243243,30.0540541 14.2702703,29.8378378 12.4324324,29.8378378 Z M72.972973,77.4054054 L20,77.4054054 L19.7837838,33.2972973 C19.8918919,31.027027 20.7567568,12.6486486 19.8918919,7.89189189 L30.4864865,4.54054054 C31.1351351,7.02702703 33.1891892,12.972973 36.8648649,14.8108108 C36.972973,14.9189189 37.1891892,14.9189189 37.2972973,14.9189189 C37.4054054,14.9189189 37.5135135,14.9189189 37.6216216,14.8108108 L42.7027027,12.972973 L42.7027027,24.3243243 C42.7027027,24.972973 43.1351351,25.4054054 43.7837838,25.4054054 L49.1891892,25.4054054 C49.8378378,25.4054054 50.2702703,24.972973 50.2702703,24.3243243 C50.2702703,23.6756757 49.8378378,23.2432432 49.1891892,23.2432432 L44.8648649,23.2432432 L44.8648649,12.4324324 L44.8648649,12.4324324 L46.4864865,11.8918919 L55.2432432,15.027027 C55.3513514,15.027027 55.4594595,15.1351351 55.5675676,15.1351351 C55.7837838,15.1351351 55.8918919,15.1351351 56,15.027027 C59.7837838,13.1891892 61.8378378,7.24324324 62.5945946,4.75675676 L73.0810811,8 C72.2162162,12.6486486 72.972973,30.2702703 73.1891892,33.1891892 L73.1891892,33.2972973 L72.972973,77.4054054 Z M75.2432432,30.8108108 C74.9189189,24.2162162 74.5945946,12.4324324 75.1351351,8.75675676 C77.4054054,9.72972973 82.1621622,11.6756757 86.0540541,13.7297297 C85.1891892,15.8918919 82.8108108,22.1621622 80.5405405,29.9459459 C78.7027027,29.8378378 76.6486486,30.0540541 75.2432432,30.8108108 Z M85.5135135,30.0540541 C84.8648649,29.9459459 83.8918919,29.8378378 82.8108108,29.8378378 C84.972973,22.7027027 87.1351351,16.8648649 88,14.5945946 C88.8648649,15.027027 89.6216216,15.4594595 90.1621622,15.8918919 L85.5135135,30.0540541 Z" id="Shape"></path>
                        <circle id="Oval" cx="47.1351351" cy="20" r="1.18918919"></circle>
                        <circle id="Oval" cx="47.1351351" cy="15.8918919" r="1.18918919"></circle>
                    </g>
                </g>
            </g>
        </g>
    </g>
</svg>