<?xml version="1.0" encoding="UTF-8"?>
<svg width="311px" height="466px" viewBox="0 0 311 466" version="1.1" xmlns="http://www.w3.org/2000/svg" xmlns:xlink="http://www.w3.org/1999/xlink">
    <!-- Generator: Sketch 44.1 (41455) - http://www.bohemiancoding.com/sketch -->
    <title>4-camisas-over</title>
    <desc>Created with Sketch.</desc>
    <defs></defs>
    <g id="Page-1" stroke="none" stroke-width="1" fill="none" fill-rule="evenodd">
        <g id="Artboard" transform="translate(-1013.000000, -516.000000)">
            <g id="4-camisas-over" transform="translate(1013.000000, 516.000000)">
                <rect id="Rectangle-Copy-2" fill="#BE1F85" x="0" y="0" width="311" height="466"></rect>
                <g id="noun_942450_cc" transform="translate(120.000000, 193.000000)" fill-rule="nonzero" fill="#FFFFFF">
                    <g id="Group">
                        <path d="M26.7936946,32.6880788 L7.51566502,32.6880788 C6.79349754,32.6880788 6.20788177,33.2736946 6.20788177,33.9958621 L6.20788177,52.3773399 C6.20788177,52.9142857 6.53576355,53.3960591 7.0346798,53.5934975 L16.6736946,57.404335 C16.8281773,57.4656158 16.99133,57.4963547 17.1544828,57.4963547 C17.3176355,57.4963547 17.4807882,57.4656158 17.6352709,57.404335 L27.2742857,53.5934975 C27.773202,53.3960591 28.1010837,52.9142857 28.1010837,52.3773399 L28.1010837,33.9958621 C28.1012808,33.2736946 27.5158621,32.6880788 26.7936946,32.6880788 Z M25.4859113,51.4882759 L17.1546798,54.782266 L8.82344828,51.4882759 L8.82344828,35.3036453 L25.4861084,35.3036453 L25.4861084,51.4882759 L25.4859113,51.4882759 Z" id="Shape"></path>
                        <circle id="Oval" cx="38.5249261" cy="31.7166502" r="2.12965517"></circle>
                        <circle id="Oval" cx="38.5249261" cy="48.3048276" r="2.12965517"></circle>
                        <circle id="Oval" cx="38.5249261" cy="65.5651232" r="2.12965517"></circle>
                        <path d="M66.4918227,12.7521182 C66.2935961,10.6484729 64.5182266,8.99684729 62.3637438,8.99684729 L55.3984236,8.99684729 L51.9700493,0.805123153 C51.9357635,0.722955665 51.893399,0.644926108 51.8439409,0.572019704 C51.8378325,0.563152709 51.830936,0.554876847 51.8244335,0.546206897 C51.8059113,0.520394089 51.7871921,0.494581281 51.7666995,0.470147783 C51.7560591,0.457339901 51.7444335,0.445517241 51.7330049,0.433103448 C51.715665,0.413793103 51.6985222,0.394482759 51.68,0.376157635 C51.6671921,0.363546798 51.653399,0.351921182 51.64,0.339901478 C51.6214778,0.323152709 51.6031527,0.306206897 51.5838424,0.29044335 C51.5704433,0.279408867 51.555665,0.26955665 51.5418719,0.258916256 C51.5211823,0.243546798 51.5004926,0.22817734 51.4788177,0.213990148 C51.4652217,0.204926108 51.4508374,0.196847291 51.4368473,0.188374384 C51.4135961,0.174384236 51.3903448,0.160394089 51.3661084,0.147980296 C51.3525123,0.140689655 51.3383251,0.134384236 51.3241379,0.127684729 C51.2987192,0.11546798 51.2733005,0.10364532 51.2466995,0.0932019704 C51.2419704,0.0912315271 51.2372414,0.0886699507 51.2325123,0.0868965517 C51.2226601,0.082955665 51.2124138,0.080591133 51.2029557,0.077044335 C51.1767488,0.0677832512 51.1505419,0.0589162562 51.1237438,0.0512315271 C51.1071921,0.0465024631 51.0904433,0.0425615764 51.0736946,0.0384236453 C51.049064,0.0323152709 51.0240394,0.0266009852 50.9986207,0.0220689655 C50.9789163,0.0185221675 50.9592118,0.0157635468 50.9393103,0.0130049261 C50.9168473,0.00985221675 50.8941872,0.00709359606 50.871133,0.00512315271 C50.8484729,0.00334975369 50.8258128,0.00236453202 50.8029557,0.00177339901 C50.7895567,0.00157635468 50.7761576,0 50.7627586,0 L15.7936946,0 C15.7797044,0 15.7659113,0.00177339901 15.7519212,0.00216748768 C15.7298522,0.00295566502 15.7079803,0.00374384236 15.6861084,0.00551724138 C15.6624631,0.00748768473 15.6392118,0.0104433498 15.6159606,0.0135960591 C15.5968473,0.0163546798 15.577734,0.0189162562 15.5586207,0.0224630542 C15.5328079,0.0271921182 15.5075862,0.0329064039 15.4821675,0.0390147783 C15.4658128,0.0431527094 15.4494581,0.0470935961 15.4331034,0.0516256158 C15.4061084,0.0593103448 15.3797044,0.0683743842 15.3536946,0.077635468 C15.3438424,0.081182266 15.3339901,0.0837438424 15.3241379,0.0874876847 C15.3192118,0.0892610837 15.3144828,0.0918226601 15.3097537,0.0937931034 C15.2833498,0.104236453 15.257931,0.116059113 15.2325123,0.128078818 C15.2185222,0.134778325 15.2041379,0.141280788 15.1903448,0.148571429 C15.1663054,0.160985222 15.1432512,0.174778325 15.120197,0.188768473 C15.1056158,0.197044335 15.0912315,0.205320197 15.0774384,0.214187192 C15.0561576,0.22817734 15.035665,0.243349754 15.0153695,0.258719212 C15.0009852,0.269359606 14.986601,0.279408867 14.9726108,0.290837438 C14.9534975,0.306206897 14.9355665,0.322955665 14.9172414,0.339310345 C14.9036453,0.351724138 14.8894581,0.363546798 14.8764532,0.37635468 C14.8583251,0.394285714 14.8415764,0.413399015 14.8244335,0.432315271 C14.8128079,0.444926108 14.8005911,0.457142857 14.7897537,0.470541872 C14.7696552,0.494581281 14.751133,0.519802956 14.7328079,0.545418719 C14.7263054,0.554482759 14.7190148,0.562955665 14.7129064,0.572216749 C14.6632512,0.644926108 14.6208867,0.722955665 14.586601,0.805123153 L11.1580296,8.99684729 L4.14719212,8.99684729 C1.86049261,8.99684729 0,10.8573399 0,13.1440394 L0,72.0331034 C0,74.1875862 1.65182266,75.9627586 3.75546798,76.1609852 C3.95369458,78.2650246 5.72906404,79.9164532 7.8835468,79.9164532 L66.1000985,79.9164532 C68.386798,79.9164532 70.2472906,78.0561576 70.2472906,75.7692611 L70.2472906,16.880197 C70.2472906,14.7257143 68.595468,12.9503448 66.4918227,12.7521182 Z M55.5519212,12.0171429 C55.7075862,11.9071921 55.8331034,11.7684729 55.9249261,11.6122167 L62.3639409,11.6122167 C63.20867,11.6122167 63.8957635,12.2995074 63.8957635,13.1440394 L63.8957635,72.0331034 C63.8957635,72.4522167 63.7304433,72.8423645 63.4301478,73.1326108 C63.4283744,73.1345813 63.426601,73.1361576 63.4248276,73.137931 C63.2731034,73.2841379 63.0953695,73.3958621 62.8957635,73.4701478 C62.8898522,73.4721182 62.8839409,73.4742857 62.8778325,73.4766502 C62.7144828,73.5351724 62.5414778,73.5647291 62.3639409,73.5647291 L34.5631527,73.5647291 L34.5631527,14.8738916 L38.3925123,22.3036453 C38.5659113,22.639803 38.8762562,22.884532 39.2437438,22.9745813 C39.6112315,23.0646305 39.9996059,22.990936 40.3085714,22.7730049 L55.5519212,12.0171429 Z M53.1862069,10.4853202 L40.0287685,19.7694581 L35.0624631,10.1335961 L50.0835468,3.07172414 L53.1862069,10.4853202 Z M44.9075862,2.61517241 L33.2786207,8.08236453 L21.649064,2.61517241 L44.9075862,2.61517241 Z M16.4731034,3.07192118 L31.4951724,10.1337931 L26.5280788,19.7696552 L13.3702463,10.4853202 L16.4731034,3.07192118 Z M4.14719212,73.5649261 C3.30246305,73.5649261 2.61536946,72.8776355 2.61536946,72.0333005 L2.61536946,13.1440394 C2.61536946,12.2993103 3.30246305,11.6122167 4.14719212,11.6122167 L10.6317241,11.6122167 C10.7235468,11.7684729 10.849064,11.9073892 11.0049261,12.0171429 L26.2478818,22.7730049 C26.5570443,22.990936 26.9452217,23.0648276 27.3129064,22.9745813 C27.6803941,22.884532 27.9907389,22.64 28.1641379,22.3036453 L31.9477833,14.9637438 L31.9477833,73.5649261 L4.14719212,73.5649261 Z M67.6317241,75.7692611 C67.6317241,76.6139901 66.9446305,77.3008867 66.1000985,77.3008867 L7.8835468,77.3008867 C7.18147783,77.3008867 6.58955665,76.8256158 6.40945813,76.1800985 L33.2526108,76.1800985 C33.2535961,76.1800985 33.2545813,76.1800985 33.2553695,76.1800985 C33.2563547,76.1800985 33.2573399,76.1800985 33.2583251,76.1800985 L62.3637438,76.1800985 C62.8587192,76.1800985 63.3428571,76.0935961 63.8031527,75.9229557 C63.8122167,75.9194089 63.8212808,75.9160591 63.8303448,75.9125123 C64.3637438,75.710936 64.8407882,75.4078818 65.248867,75.0116256 C65.2500493,75.0108374 65.2510345,75.0096552 65.2522167,75.0084729 C66.0640394,74.2218719 66.51133,73.1651232 66.51133,72.0327094 L66.51133,15.4061084 C67.1564532,15.5864039 67.6321182,16.1781281 67.6321182,16.880197 L67.6321182,75.7692611 L67.6317241,75.7692611 Z" id="Shape"></path>
                    </g>
                </g>
            </g>
        </g>
    </g>
</svg>