<?xml version="1.0" encoding="UTF-8"?>
<svg width="311px" height="466px" viewBox="0 0 311 466" version="1.1" xmlns="http://www.w3.org/2000/svg" xmlns:xlink="http://www.w3.org/1999/xlink">
    <!-- Generator: Sketch 44.1 (41455) - http://www.bohemiancoding.com/sketch -->
    <title>6-casacos-over</title>
    <desc>Created with Sketch.</desc>
    <defs></defs>
    <g id="Page-1" stroke="none" stroke-width="1" fill="none" fill-rule="evenodd">
        <g id="Artboard" transform="translate(-1675.000000, -516.000000)">
            <g id="6-casacos-over" transform="translate(1675.000000, 516.000000)">
                <rect id="Rectangle-Copy-2" fill="#E55247" x="0" y="0" width="311" height="466"></rect>
                <g id="noun_906741_cc" transform="translate(125.000000, 193.000000)" fill-rule="nonzero" fill="#FFFFFF">
                    <path d="M12.1333333,13.7333333 C11.6,14.4 10.9333333,14.9333333 10.4,15.6 C10.1333333,16 9.86666667,16.2666667 9.73333333,16.4 C6,22.2666667 3.6,32.2666667 2.4,45.3333333 C1.33333333,55.7333333 1.2,66.6666667 1.33333333,76.2666667 C1.33333333,76.9333333 1.33333333,77.4666667 1.33333333,78 C1.33333333,78.2666667 1.33333333,78.5333333 1.33333333,78.6666667 C1.33333333,79.3333333 2,80 2.66666667,80 L8,80 C8.53333333,80 9.06666667,79.7333333 9.2,79.2 L13.0666667,69.8666667 C13.3333333,69.7333333 13.3333333,69.4666667 13.3333333,69.3333333 C12.8,52.9333333 12.9333333,39.2 13.4666667,28.1333333 C13.7333333,21.4666667 14.2666667,16.4 14.5333333,14.9333333 C14.6666667,13.6 13.0666667,12.8 12.1333333,13.7333333 Z M10.8,28 C10.2666667,39.0666667 10.1333333,52.8 10.6666667,69.0666667 L7.2,77.3333333 L4.13333333,77.3333333 C4.13333333,77.0666667 4.13333333,76.6666667 4.13333333,76.2666667 C3.86666667,66.8 4.13333333,55.8666667 5.06666667,45.6 C6.26666667,33.7333333 8.26666667,24.4 11.3333333,18.9333333 C11.0666667,21.6 10.9333333,24.5333333 10.8,28 Z" id="Shape"></path>
                    <path d="M56.4,45.7333333 C57.3333333,56 57.6,66.8 57.3333333,76.4 C57.3333333,76.8 57.3333333,77.0666667 57.3333333,77.4666667 L54.1333333,77.4666667 L50.6666667,69.2 C51.3333333,52.8 51.2,39.0666667 50.6666667,28 C50.5333333,24.5333333 50.2666667,21.6 50.1333333,19.0666667 C53.2,24.4 55.2,33.7333333 56.4,45.7333333 Z M49.3333333,13.7333333 C48.4,12.8 46.8,13.6 47.0666667,14.9333333 C47.3333333,16.4 47.7333333,21.4666667 48.1333333,28.1333333 C48.6666667,39.3333333 48.8,53.0666667 48.2666667,69.3333333 C48.2666667,69.4666667 48.2666667,69.7333333 48.4,69.8666667 L52.2666667,79.2 C52.5333333,79.7333333 52.9333333,80 53.4666667,80 L58.8,80 C59.4666667,80 60.1333333,79.4666667 60.1333333,78.6666667 C60.1333333,78.5333333 60.1333333,78.4 60.1333333,78 C60.1333333,77.4666667 60.1333333,76.9333333 60.1333333,76.2666667 C60.4,66.6666667 60.1333333,55.7333333 59.0666667,45.3333333 C57.8666667,32.2666667 55.4666667,22.2666667 51.7333333,16.5333333 C51.4666667,16.2666667 49.8666667,14.4 49.3333333,13.7333333 Z" id="Shape"></path>
                    <path d="M44,6 C42,2.26666667 37.6,0 30.6666667,0 C23.7333333,0 19.3333333,2.26666667 17.3333333,6 C16.4,7.6 16,9.33333333 16,10.8 C14.9333333,11.2 13.7333333,12.1333333 12.1333333,13.7333333 C12,14 11.8666667,14.2666667 11.7333333,14.5333333 C11.7333333,14.9333333 11.4666667,16.1333333 11.3333333,17.7333333 C11.0666667,20.4 10.8,23.6 10.6666667,27.3333333 C10.2666667,38.1333333 10.1333333,51.6 10.6666667,68 C10.6666667,68.2666667 10.8,68.5333333 10.9333333,68.8 C13.7333333,72.5333333 18,74.6666667 22.6666667,74.6666667 L38.8,74.6666667 C43.4666667,74.6666667 47.7333333,72.5333333 50.5333333,68.8 C50.6666667,68.5333333 50.8,68.2666667 50.8,68 C51.3333333,51.6 51.2,38.1333333 50.6666667,27.2 C50.5333333,23.3333333 50.2666667,20.1333333 50,17.6 C49.8666667,16 49.7333333,14.8 49.6,14.4 C49.6,14.1333333 49.4666667,13.8666667 49.2,13.7333333 C47.7333333,12.2666667 46.4,11.2 45.2,10.8 C45.3333333,9.33333333 44.9333333,7.6 44,6 Z M38.8,72 L22.6666667,72 C19.0666667,72 15.6,70.4 13.3333333,67.4666667 C12.8,51.3333333 12.9333333,38.1333333 13.4666667,27.4666667 C13.6,23.7333333 13.8666667,20.5333333 14.1333333,18 C14.2666667,17.0666667 14.2666667,16.4 14.4,15.7333333 C14.4,15.6 14.4,15.4666667 14.4,15.4666667 C15.7333333,14.1333333 16.8,13.3333333 17.0666667,13.4666667 C18,13.7333333 18.8,12.9333333 18.6666667,12 C18.5333333,10.5333333 18.8,8.93333333 19.6,7.46666667 C21.2,4.4 24.6666667,2.66666667 30.6666667,2.66666667 C36.6666667,2.66666667 40.1333333,4.4 41.7333333,7.33333333 C42.5333333,8.8 42.8,10.4 42.6666667,11.7333333 C42.5333333,12.8 43.3333333,13.6 44.2666667,13.3333333 C44.5333333,13.2 45.7333333,14 47.0666667,15.3333333 C47.0666667,15.4666667 47.2,16.9333333 47.3333333,17.8666667 C47.6,20.4 47.8666667,23.6 48,27.3333333 C48.5333333,38 48.6666667,51.3333333 48.1333333,67.4666667 C45.8666667,70.4 42.4,72 38.8,72 Z" id="Shape"></path>
                    <path d="M38.8,72 L22.6666667,72 C20.1333333,72 17.6,71.2 15.4666667,69.6 C14.5333333,68.9333333 13.3333333,69.6 13.3333333,70.6666667 L13.3333333,77.3333333 C13.3333333,78.8 14.5333333,80 16,80 L45.3333333,80 C46.8,80 48,78.8 48,77.3333333 L48,70.8 C48,69.7333333 46.8,69.0666667 45.8666667,69.7333333 C43.8666667,71.2 41.3333333,72 38.8,72 Z M45.3333333,77.3333333 L16,77.3333333 L16,73.0666667 C18,74.1333333 20.4,74.6666667 22.6666667,74.6666667 L38.8,74.6666667 C41.0666667,74.6666667 43.3333333,74.1333333 45.3333333,73.0666667 L45.3333333,77.3333333 Z" id="Shape"></path>
                    <path d="M16.1333333,12.5333333 C16.4,13.3333333 17.0666667,14.4 18,15.6 C19.6,17.6 21.6,18.8 24,18.8 C24.8,18.8 25.3333333,18.2666667 25.3333333,17.4666667 C25.3333333,16.6666667 24.8,16.1333333 24,16.1333333 C22.5333333,16.1333333 21.2,15.3333333 20,14 C19.6,13.4666667 19.2,12.9333333 18.9333333,12.4 C18.6666667,11.8666667 18.6666667,11.6 18.5333333,11.4666667 C18.2666667,10.8 17.4666667,10.5333333 16.8,10.8 C16.1333333,11.0666667 15.8666667,11.8666667 16.1333333,12.5333333 Z" id="Shape"></path>
                    <path d="M42.8,11.4666667 C42.8,11.6 41.7333333,13.3333333 41.3333333,13.8666667 C40.1333333,15.2 38.8,16 37.3333333,16 C36.5333333,16 36,16.5333333 36,17.3333333 C36,18.1333333 36.5333333,18.6666667 37.3333333,18.6666667 C39.7333333,18.6666667 41.7333333,17.4666667 43.3333333,15.4666667 C44.2666667,14.4 44.9333333,13.2 45.2,12.4 C45.4666667,11.7333333 45.2,10.9333333 44.5333333,10.6666667 C43.8666667,10.4 43.0666667,10.8 42.8,11.4666667 Z" id="Shape"></path>
                    <path d="M38,10.9333333 C39.3333333,9.2 38.1333333,6.66666667 35.8666667,6.66666667 L25.4666667,6.66666667 C23.2,6.66666667 22,9.2 23.3333333,10.9333333 L26.5333333,14.9333333 C27.0666667,15.6 27.8666667,16 28.6666667,16 L32.6666667,16 C33.4666667,16 34.2666667,15.6 34.8,15.0666667 L38,10.9333333 Z M28.6666667,13.3333333 L25.4666667,9.33333333 L35.8666667,9.33333333 L32.6666667,13.3333333 C32.6666667,13.3333333 28.6666667,13.3333333 28.6666667,13.3333333 Z" id="Shape"></path>
                    <path d="M25.3333333,20 L25.3333333,30.6666667 C25.3333333,31.4666667 25.8666667,32 26.6666667,32 C27.4666667,32 28,31.4666667 28,30.6666667 L28,20 C28,19.2 27.4666667,18.6666667 26.6666667,18.6666667 C25.8666667,18.6666667 25.3333333,19.2 25.3333333,20 Z" id="Shape"></path>
                    <path d="M33.3333333,20 L33.3333333,30.6666667 C33.3333333,31.4666667 33.8666667,32 34.6666667,32 C35.4666667,32 36,31.4666667 36,30.6666667 L36,20 C36,19.2 35.4666667,18.6666667 34.6666667,18.6666667 C33.8666667,18.6666667 33.3333333,19.2 33.3333333,20 Z" id="Shape"></path>
                    <path d="M49.8666667,72 L49.8666667,72.2666667 C49.8666667,72.4 49.8666667,72.6666667 50,72.8 L52.1333333,79.2 C52.4,79.7333333 52.8,80 53.3333333,80 L58.6666667,80 C59.3333333,80 60,79.4666667 60,78.6666667 C60,78.5333333 60,78.4 60,78.1333333 C60,77.6 60,77.0666667 60,76.5333333 C60,75.2 60,73.7333333 60,72.1333333 C60,71.3333333 59.4666667,70.8 58.6666667,70.8 L50.6666667,70.8 C49.8666667,70.6666667 49.8666667,71.2 49.8666667,72 Z M57.4666667,73.3333333 C57.4666667,74.4 57.4666667,75.4666667 57.4666667,76.4 C57.4666667,76.6666667 57.4666667,77.0666667 57.4666667,77.3333333 L54.2666667,77.3333333 L52.6666667,73.3333333 L57.4666667,73.3333333 Z" id="Shape"></path>
                    <path d="M7.2,77.3333333 L4.13333333,77.3333333 C4.13333333,77.0666667 4.13333333,76.8 4.13333333,76.4 C4.13333333,75.4666667 4.13333333,74.4 4.13333333,73.3333333 L9.06666667,73.3333333 L7.2,77.3333333 Z M12.1333333,72 C12.1333333,71.2 11.6,70.6666667 10.8,70.6666667 L2.66666667,70.6666667 C1.86666667,70.6666667 1.33333333,71.3333333 1.33333333,72 C1.33333333,73.6 1.33333333,75.0666667 1.33333333,76.4 C1.33333333,77.0666667 1.33333333,77.6 1.33333333,78 C1.33333333,78.2666667 1.33333333,78.5333333 1.33333333,78.5333333 C1.33333333,79.2 2,79.8666667 2.66666667,79.8666667 L8,79.8666667 C8.53333333,79.8666667 9.06666667,79.6 9.2,79.0666667 L11.8666667,72.6666667 C12,72.5333333 12,72.2666667 12,72.1333333 L12.1333333,72 L12.1333333,72 Z" id="Shape"></path>
                    <path d="M22.6666667,53.3333333 C22.6666667,57.8666667 20.1333333,61.3333333 17.3333333,61.3333333 C16.5333333,61.3333333 16,61.8666667 16,62.6666667 L16,68 C16,68.8 16.5333333,69.3333333 17.3333333,69.3333333 L30.6666667,69.3333333 C31.4666667,69.3333333 32,68.8 32,68 L32,53.3333333 C32,52.5333333 31.4666667,52 30.6666667,52 L24,52 C23.2,52 22.6666667,52.5333333 22.6666667,53.3333333 Z M29.3333333,54.6666667 L29.3333333,66.6666667 L18.6666667,66.6666667 L18.6666667,63.8666667 C22.1333333,63.0666667 24.8,59.3333333 25.3333333,54.6666667 L29.3333333,54.6666667 Z" id="Shape"></path>
                    <path d="M42.6666667,63.8666667 L42.6666667,66.6666667 L32,66.6666667 L32,54.6666667 L36,54.6666667 C36.5333333,59.3333333 39.2,63.0666667 42.6666667,63.8666667 Z M38.6666667,53.3333333 C38.6666667,52.5333333 38.1333333,52 37.3333333,52 L30.6666667,52 C29.8666667,52 29.3333333,52.5333333 29.3333333,53.3333333 L29.3333333,68 C29.3333333,68.8 29.8666667,69.3333333 30.6666667,69.3333333 L44,69.3333333 C44.8,69.3333333 45.3333333,68.8 45.3333333,68 L45.3333333,62.6666667 C45.3333333,61.8666667 44.8,61.3333333 44,61.3333333 C41.2,61.3333333 38.6666667,57.8666667 38.6666667,53.3333333 Z" id="Shape"></path>
                </g>
            </g>
        </g>
    </g>
</svg>